Coordinates
version=1
nRows=23
nColumns=28
inDegrees=yes

Units are S.I. units (second, meters, Newtons, ...)
Angles are in degrees.

endheader
time	pelvis_tilt	pelvis_list	pelvis_rotation	pelvis_tx	pelvis_ty	pelvis_tz	hip_flexion_r	hip_adduction_r	hip_rotation_r	knee_angle_r	ankle_angle_r	subtalar_angle_r	mtp_angle_r	hip_flexion_l	hip_adduction_l	hip_rotation_l	knee_angle_l	socket_flexion	socket_adduction	socket_rotation	socket_tx	socket_ty	socket_tz	foot_flex	lumbar_extension	lumbar_bending	lumbar_rotation
      0.64583333	     -3.25577747	     -4.19967363	      4.39964040	     -0.05122670	      0.97162932	      0.27544645	     30.10021345	      7.80167579	      2.83644326	     -7.84719977	     16.29717391	    -24.87274197	     -3.41513991	    -18.98801348	     -3.97266453	     -0.93602613	     -8.50717096	      0.00000000	      0.00000000	      0.00000000	      0.00000000	      0.00000000	      0.00000000	     10.05476400	     -7.64937515	      2.82529707	      0.33836642
      0.65000000	     -3.23649120	     -4.29014244	      4.55788113	     -0.04500996	      0.97057846	      0.27512185	     30.21602552	      7.96457219	      3.07420338	     -8.48503944	     16.14724286	    -24.89864230	     -3.42177188	    -19.24246217	     -4.12671865	     -0.81148091	     -8.74738405	      0.00000000	      0.00000000	      0.00000000	      0.00000000	      0.00000000	      0.00000000	     10.04822190	     -7.60894725	      3.04152922	      0.31879155
      0.65416667	     -3.16111555	     -4.38707723	      4.56981517	     -0.03860412	      0.96949578	      0.27492885	     30.41690166	      8.19369986	      3.03779011	     -9.43739073	     15.83928815	    -25.14992250	     -3.40860527	    -19.62198071	     -4.23204431	     -0.94816612	     -8.93547786	      0.00000000	      0.00000000	      0.00000000	      0.00000000	      0.00000000	      0.00000000	     10.08211602	     -7.59778050	      3.26919267	      0.20790683
      0.65833333	     -3.13390116	     -4.48560377	      4.74311364	     -0.03236702	      0.96849147	      0.27462797	     30.51725895	      8.36143362	      3.29099773	    -10.09129087	     15.64073456	    -25.17350663	     -3.39425157	    -19.85888373	     -4.40572398	     -0.83655649	     -9.21943027	      0.00000000	      0.00000000	      0.00000000	      0.00000000	      0.00000000	      0.00000000	     10.02971044	     -7.56922829	      3.49868539	      0.19492855
      0.66250000	     -3.04489047	     -4.60326197	      4.73725465	     -0.02589340	      0.96746482	      0.27446914	     30.71801237	      8.61872123	      3.22021496	    -11.09622851	     15.16364426	    -25.45124923	     -3.32923580	    -20.24600693	     -4.52518476	     -1.01104074	     -9.42334247	      0.00000000	      0.00000000	      0.00000000	      0.00000000	      0.00000000	      0.00000000	     10.03770964	     -7.56439659	      3.75402816	      0.08772525
      0.66666667	     -2.96073133	     -4.73451604	      4.77600923	     -0.01956224	      0.96655730	      0.27429942	     30.84351353	      8.87292621	      3.27809487	    -11.93641234	     14.64752948	    -25.69617725	     -3.14531523	    -20.55906622	     -4.68250238	     -1.08045773	     -9.72106169	      0.00000000	      0.00000000	      0.00000000	      0.00000000	      0.00000000	      0.00000000	      9.96909389	     -7.58190561	      4.03643863	      0.03117749
      0.67083333	     -2.91728185	     -4.85179745	      4.89223930	     -0.01327230	      0.96569822	      0.27410721	     30.92846142	      9.08537184	      3.49056357	    -12.62998329	     14.36219267	    -25.74445658	     -3.08368351	    -20.77476295	     -4.86230245	     -0.98303779	    -10.08180204	      0.00000000	      0.00000000	      0.00000000	      0.00000000	      0.00000000	      0.00000000	      9.86978149	     -7.55660462	      4.28900240	      0.02275338
      0.67500000	     -2.81354846	     -5.00631744	      4.85803772	     -0.00673936	      0.96482974	      0.27399539	     31.09978077	      9.37584929	      3.36818585	    -13.62871998	     13.63932894	    -26.06486802	     -2.84038332	    -21.13268939	     -5.01236643	     -1.22738207	    -10.37220139	      0.00000000	      0.00000000	      0.00000000	      0.00000000	      0.00000000	      0.00000000	      9.79305595	     -7.56820019	      4.59860921	     -0.04286217
      0.67916667	     -2.75383073	     -5.13818284	      4.94334506	     -0.00041977	      0.96408271	      0.27389019	     31.17742482	      9.61414645	      3.53377053	    -14.36209423	     13.27368228	    -26.13953763	     -2.72269928	    -21.33916923	     -5.20083809	     -1.17803116	    -10.78526199	      0.00000000	      0.00000000	      0.00000000	      0.00000000	      0.00000000	      0.00000000	      9.65824519	     -7.55329564	      4.86489369	     -0.04629225
      0.68333333	     -2.65129821	     -5.30896021	      4.88679204	      0.00612131	      0.96333125	      0.27382580	     31.33287853	      9.92010884	      3.41288439	    -15.34550002	     12.57220180	    -26.37813582	     -2.48610652	    -21.65498420	     -5.36071118	     -1.39010348	    -11.14467387	      0.00000000	      0.00000000	      0.00000000	      0.00000000	      0.00000000	      0.00000000	      9.53596290	     -7.55904502	      5.18442062	     -0.08217232
      0.68750000	     -2.38444257	     -5.54891489	      4.87888028	      0.01260430	      0.96301422	      0.27369389	     31.02418327	     10.30265049	      3.67198242	    -15.63697126	      9.50800119	    -28.55765866	      4.38385080	    -22.08847255	     -5.61928829	     -1.58038296	    -11.59478257	      0.00000000	      0.00000000	      0.00000000	      0.00000000	      0.00000000	      0.00000000	      9.34466411	     -7.77101138	      5.59264602	      0.02827873
      0.69166667	     -2.33269965	     -5.71508877	      4.88408084	      0.01908109	      0.96237090	      0.27363701	     31.21039191	     10.55926713	      3.52941253	    -16.60393629	      9.20046429	    -28.43698249	      4.49723718	    -22.25813556	     -5.80761781	     -1.70632208	    -12.08013038	      0.00000000	      0.00000000	      0.00000000	      0.00000000	      0.00000000	      0.00000000	      9.13653956	     -7.73032553	      5.90201570	      0.01132887
      0.69583333	     -2.26458387	     -5.88927979	      4.84932267	      0.02557772	      0.96184902	      0.27363914	     31.33721904	     10.84055325	      3.41708504	    -17.48973910	      8.82113844	    -28.33362504	      4.60483636	    -22.42433329	     -5.98973927	     -1.81347665	    -12.61617718	      0.00000000	      0.00000000	      0.00000000	      0.00000000	      0.00000000	      0.00000000	      8.91894418	     -7.70524406	      6.21150314	      0.01405097
      0.70000000	     -2.17928716	     -6.08741495	      4.82223581	      0.03207281	      0.96144290	      0.27362632	     31.43009478	     11.13316703	      3.30720850	    -18.35654655	      8.42861490	    -28.24267060	      4.74345711	    -22.57632666	     -6.20039355	     -1.95009048	    -13.20402795	      0.00000000	      0.00000000	      0.00000000	      0.00000000	      0.00000000	      0.00000000	      8.66427396	     -7.70295116	      6.54821261	      0.03978538
      0.70416667	     -2.07390005	     -6.30718869	      4.76728826	      0.03864281	      0.96114383	      0.27359197	     31.48804570	     11.44334030	      3.13003715	    -19.20548539	      7.99280421	    -28.13797555	      4.98967282	    -22.73430253	     -6.41997217	     -2.13777525	    -13.82948108	      0.00000000	      0.00000000	      0.00000000	      0.00000000	      0.00000000	      0.00000000	      8.38730773	     -7.70905471	      6.94236449	      0.09868114
      0.70833333	     -1.98735595	     -6.48969963	      4.76190959	      0.04506825	      0.96094148	      0.27366259	     31.49313391	     11.72349928	      3.15271345	    -19.92929487	      7.74348847	    -28.07899380	      5.10152373	    -22.80547464	     -6.63685555	     -2.18733331	    -14.53652419	      0.00000000	      0.00000000	      0.00000000	      0.00000000	      0.00000000	      0.00000000	      8.08655890	     -7.70707599	      7.21949484	      0.12971709
      0.71250000	     -1.90828777	     -6.66330187	      4.74599389	      0.05142312	      0.96085623	      0.27376472	     31.48155774	     11.99730675	      3.20998185	    -20.61418952	      7.54142984	    -28.02636579	      5.15708825	    -22.81051223	     -6.84368794	     -2.21404549	    -15.33699964	      0.00000000	      0.00000000	      0.00000000	      0.00000000	      0.00000000	      0.00000000	      7.73862647	     -7.73407266	      7.50741046	      0.16202793
      0.71666667	     -1.75320490	     -7.00480937	      4.58384985	      0.05822899	      0.96075940	      0.27377362	     31.49135325	     12.41954540	      2.78927415	    -21.48674865	      7.00571741	    -27.83521316	      5.57401666	    -23.00918969	     -7.14523826	     -2.62060862	    -16.03205953	      0.00000000	      0.00000000	      0.00000000	      0.00000000	      0.00000000	      0.00000000	      7.41858024	     -7.76678385	      8.02571451	      0.30257122
      0.72083333	     -1.66758729	     -7.16582203	      4.56597831	      0.06453224	      0.96084889	      0.27393882	     31.42070528	     12.68070938	      2.88389914	    -22.10311624	      6.88148964	    -27.78178220	      5.64487269	    -22.94713457	     -7.35021007	     -2.61999687	    -16.94384477	      0.00000000	      0.00000000	      0.00000000	      0.00000000	      0.00000000	      0.00000000	      7.03222471	     -7.80095520	      8.28426080	      0.33738175
      0.72500000	     -1.40904635	     -7.46424291	      4.49831536	      0.07140592	      0.96101454	      0.27365899	     31.28577271	     12.93699829	      2.18143373	    -22.89623826	      5.86382489	    -27.50285816	     10.22452823	    -23.18502293	     -7.63675229	     -2.92728204	    -17.73045284	      0.00000000	      0.00000000	      0.00000000	      0.00000000	      0.00000000	      0.00000000	      6.63450722	     -7.93039260	      8.77099430	      0.44463096
      0.72916667	     -1.32289636	     -7.64880353	      4.40965172	      0.07778207	      0.96118851	      0.27382494	     31.20359911	     13.21791810	      2.16441997	    -23.51097012	      5.72615935	    -27.45057640	     10.22779695	    -23.08798560	     -7.83338692	     -3.05362769	    -18.72864896	      0.00000000	      0.00000000	      0.00000000	      0.00000000	      0.00000000	      0.00000000	      6.27789393	     -7.96507369	      9.05558054	      0.48113603
      0.73333333	     -1.21360128	     -7.94750028	      4.28795789	      0.08446524	      0.96139113	      0.27395759	     31.09573824	     13.59641367	      1.99526050	    -24.14164195	      5.54665693	    -27.24826908	     10.27772490	    -23.06215700	     -8.13728681	     -3.33694571	    -19.67658512	      0.00000000	      0.00000000	      0.00000000	      0.00000000	      0.00000000	      0.00000000	      5.90048736	     -7.96065293	      9.48479436	      0.60565559
      0.73750000	     -1.11759632	     -8.10323060	      4.20301160	      0.09085319	      0.96171132	      0.27422122	     30.93236789	     13.85585641	      2.02355968	    -24.65764175	      5.49188456	    -27.17285656	     10.30617511	    -22.92208814	     -8.32530806	     -3.40549000	    -20.74245292	      0.00000000	      0.00000000	      0.00000000	      0.00000000	      0.00000000	      0.00000000	      5.49637809	     -7.99061299	      9.71916307	      0.65314751
